<svg width="1240" height="971" viewBox="0 0 1240 971" fill="none" xmlns="http://www.w3.org/2000/svg">
<path d="M0.906723 0C-5.87335 71.4925 25.787 139.648 81.9076 174.15C146.068 213.589 213.239 191.235 223.619 187.589C232.379 209.447 249.069 243.37 280.5 273.368C410.201 397.139 637.754 307.797 653.724 301.268C710.134 278.223 754.015 246.582 786.445 217.556C808.395 256.137 830.356 294.73 852.306 333.311C852.366 545.878 852.416 758.434 852.476 971H1002V269.236C1011.16 276.962 1073.96 328.198 1154.68 310.575C1198.04 301.113 1226.81 276.095 1240 262.862V0H0.906723ZM852.316 224.797C844.666 209.292 837.016 193.787 829.366 178.292C837.016 168.303 844.666 158.314 852.316 148.315V224.797Z" fill="#189CAB"/>
</svg>
