<svg width="145" height="84" viewBox="0 0 145 84" fill="none" xmlns="http://www.w3.org/2000/svg">
<path d="M132.519 38.4362C136.668 35.8038 140.828 33.1604 144.978 30.5281C139.312 28.6431 133.645 26.7581 127.99 24.8731C119.302 16.5858 110.624 8.29846 101.935 0C98.9904 2.16385 94.8411 4.75154 89.4762 6.78154C82.6835 9.35808 76.6381 10.0385 72.4889 10.1723C68.3396 10.0385 62.2831 9.35808 55.5015 6.78154C50.1365 4.75154 45.9762 2.16385 43.0427 0C34.3538 8.28731 25.6762 16.5746 16.9873 24.8731C11.3212 26.7581 5.655 28.6431 0 30.5281C4.14923 33.1604 8.30961 35.8038 12.4588 38.4362C8.30961 41.0685 4.14923 43.7119 0 46.3442C4.205 48.9208 8.41 51.4973 12.615 54.0738C10.6742 63.9338 8.73346 73.7938 6.79269 83.6538C18.6715 81.2335 31.9446 79.1923 46.4446 77.9988C55.6131 77.2404 64.3242 76.9058 72.5 76.8723C80.6758 76.9058 89.3869 77.2515 98.5554 77.9988C113.044 79.1923 126.317 81.2335 138.207 83.6538C136.267 73.7938 134.326 63.9338 132.385 54.0738C136.59 51.4973 140.795 48.9208 145 46.3442C140.851 43.7119 136.69 41.0685 132.541 38.4362H132.519Z" fill="#FBBD08"/>
<path d="M62.2832 35.6142C59.1824 42.1615 52.5459 46.3554 45.2959 46.3554C38.0459 46.3554 31.4094 42.1615 28.3086 35.6142C31.4094 29.0669 38.0459 24.873 45.2959 24.873C52.5459 24.873 59.1824 29.0669 62.2832 35.6142Z" fill="white"/>
<path d="M50.3938 35.6131C50.3938 38.6246 48.2523 41.2346 45.2965 41.8258C42.3408 41.2346 40.1992 38.6135 40.1992 35.6131C40.1992 32.6127 42.3408 29.9915 45.2965 29.4004C48.2523 29.9915 50.3938 32.6127 50.3938 35.6131Z" fill="black"/>
<path d="M116.66 35.6142C113.559 42.1615 106.923 46.3554 99.6728 46.3554C92.4228 46.3554 85.7863 42.1615 82.6855 35.6142C85.7863 29.0669 92.4228 24.873 99.6728 24.873C106.923 24.873 113.559 29.0669 116.66 35.6142Z" fill="white"/>
<path d="M104.771 35.6141C104.771 38.6256 102.629 41.2356 99.6735 41.8268C96.7177 41.2356 94.5762 38.6144 94.5762 35.6141C94.5762 32.6137 96.7177 29.9925 99.6735 29.4014C102.629 29.9925 104.771 32.6137 104.771 35.6141Z" fill="black"/>
<path d="M78.6785 45.2179C78.5224 45.7645 77.1951 45.4187 75.2766 46.3445C73.927 46.9914 73.0124 47.9172 72.4435 48.6087C71.8747 47.9172 70.9601 47.0025 69.6105 46.3445C67.692 45.4187 66.3758 45.7533 66.2085 45.2179C65.952 44.3368 68.9858 41.8271 72.4435 41.8271C75.9012 41.8271 78.9351 44.3368 78.6785 45.2179Z" fill="#E83F3F"/>
<path d="M56.65 51.999C56.6165 52.1552 56.003 54.7429 57.7877 56.5163C59.483 58.2117 61.9034 57.7433 62.3161 57.6429C64.1677 57.2413 64.77 56.0033 66.8446 54.2521C68.0046 53.2817 69.8227 51.9656 72.5107 50.8613" stroke="#E83F3F" stroke-miterlimit="10" stroke-linecap="round"/>
<path d="M88.2377 51.999C88.2712 52.1552 88.8846 54.7429 87.1 56.5163C85.4046 58.2117 82.9843 57.7433 82.5716 57.6429C80.72 57.2413 80.1177 56.0033 78.0431 54.2521C76.8831 53.2817 75.065 51.9656 72.377 50.8613" stroke="#E83F3F" stroke-miterlimit="10" stroke-linecap="round"/>
</svg>
