<svg width="127" height="75" viewBox="0 0 127 75" fill="none" xmlns="http://www.w3.org/2000/svg">
<path d="M116.068 34.46C119.702 32.1 123.346 29.73 126.98 27.37C122.018 25.68 117.055 23.99 112.102 22.3C104.492 14.87 96.8912 7.44 89.281 0C86.7019 1.94 83.0678 4.26 78.3688 6.08C72.4193 8.39 67.1244 9 63.4902 9.12C59.8561 9 54.5514 8.39 48.6117 6.08C43.9127 4.26 40.2688 1.94 37.6995 0C30.0892 7.43 22.4888 14.86 14.8785 22.3C9.91577 23.99 4.953 25.68 0 27.37C3.63415 29.73 7.27808 32.1 10.9122 34.46C7.27808 36.82 3.63415 39.19 0 41.55C3.683 43.86 7.366 46.17 11.049 48.48C9.34915 57.32 7.64931 66.16 5.94946 75C16.3537 72.83 27.9791 71 40.6791 69.93C48.7094 69.25 56.3392 68.95 63.5 68.92C70.6608 68.95 78.2906 69.26 86.3209 69.93C99.0112 71 110.637 72.83 121.051 75C119.351 66.16 117.651 57.32 115.951 48.48C119.634 46.17 123.317 43.86 127 41.55C123.366 39.19 119.722 36.82 116.088 34.46H116.068Z" fill="#FBBD08"/>
<path d="M54.5522 31.9288C51.8364 37.7988 46.0237 41.5588 39.6737 41.5588C33.3237 41.5588 27.511 37.7988 24.7952 31.9288C27.511 26.0588 33.3237 22.2988 39.6737 22.2988C46.0237 22.2988 51.8364 26.0588 54.5522 31.9288Z" fill="white"/>
<path d="M44.1383 31.9284C44.1383 34.6284 42.2626 36.9684 39.6738 37.4984C37.0849 36.9684 35.2092 34.6184 35.2092 31.9284C35.2092 29.2384 37.0849 26.8884 39.6738 26.3584C42.2626 26.8884 44.1383 29.2384 44.1383 31.9284Z" fill="black"/>
<path d="M102.177 31.9288C99.4609 37.7988 93.6482 41.5588 87.2982 41.5588C80.9482 41.5588 75.1355 37.7988 72.4197 31.9288C75.1355 26.0588 80.9482 22.2988 87.2982 22.2988C93.6482 22.2988 99.4609 26.0588 102.177 31.9288Z" fill="white"/>
<path d="M91.7629 31.9284C91.7629 34.6284 89.8872 36.9684 87.2984 37.4984C84.7096 36.9684 82.8339 34.6184 82.8339 31.9284C82.8339 29.2384 84.7096 26.8884 87.2984 26.3584C89.8872 26.8884 91.7629 29.2384 91.7629 31.9284Z" fill="black"/>
<path d="M68.9127 40.539C68.7759 41.029 67.6134 40.719 65.9331 41.549C64.751 42.129 63.9499 42.959 63.4517 43.579C62.9535 42.959 62.1524 42.139 60.9703 41.549C59.29 40.719 58.1372 41.019 57.9907 40.539C57.766 39.749 60.4232 37.499 63.4517 37.499C66.4802 37.499 69.1374 39.749 68.9127 40.539Z" fill="#E83F3F"/>
<path d="M49.6184 46.6186C49.5891 46.7586 49.0518 49.0786 50.6149 50.6686C52.0998 52.1886 54.2197 51.7686 54.5812 51.6786C56.2029 51.3186 56.7304 50.2086 58.5475 48.6386C59.5635 47.7686 61.1559 46.5886 63.5102 45.5986" stroke="#E83F3F" stroke-miterlimit="10" stroke-linecap="round"/>
<path d="M77.2849 46.6186C77.3142 46.7586 77.8515 49.0786 76.2884 50.6686C74.8035 52.1886 72.6836 51.7686 72.3221 51.6786C70.7005 51.3186 70.1729 50.2086 68.3558 48.6386C67.3398 47.7686 65.7475 46.5886 63.3931 45.5986" stroke="#E83F3F" stroke-miterlimit="10" stroke-linecap="round"/>
</svg>
